<?xml version="1.0" encoding="utf-8"?>
<!-- Generator: Adobe Illustrator 22.1.0, SVG Export Plug-In . SVG Version: 6.00 Build 0)  -->
<svg version="1.1" id="Lag_1" xmlns="http://www.w3.org/2000/svg" xmlns:xlink="http://www.w3.org/1999/xlink" x="0px" y="0px"
	 viewBox="0 0 113.1 30.1" style="enable-background:new 0 0 113.1 30.1;" xml:space="preserve">
<style type="text/css">
	.st0{enable-background:new    ;}
	.st1{fill:#FFFFFF;}
</style>
<g class="st0">
	<g>
		<path class="st1" d="M11.9,22.7c-1.5,0-2.9-0.3-4.2-0.9s-2.3-1.4-3.2-2.4s-1.6-2.1-2.1-3.3c-0.5-1.3-0.7-2.6-0.7-3.9
			c0-1.4,0.3-2.7,0.8-3.9C3,7,3.7,5.9,4.6,4.9s2-1.7,3.3-2.3s2.6-0.9,4.1-0.9s2.9,0.3,4.2,0.9S18.5,4,19.4,5c0.9,1,1.6,2.1,2.1,3.4
			s0.7,2.5,0.7,3.8c0,1.4-0.3,2.7-0.8,3.9c-0.5,1.3-1.2,2.4-2.1,3.3s-2,1.7-3.2,2.3S13.4,22.7,11.9,22.7z M6.5,12.2
			c0,0.8,0.1,1.6,0.3,2.3c0.2,0.7,0.6,1.4,1,2c0.5,0.6,1,1,1.7,1.4c0.7,0.3,1.4,0.5,2.3,0.5c0.9,0,1.7-0.2,2.4-0.6
			c0.7-0.4,1.2-0.8,1.7-1.4c0.4-0.6,0.8-1.3,1-2s0.3-1.5,0.3-2.3s-0.1-1.6-0.3-2.3c-0.2-0.7-0.6-1.4-1-2s-1-1-1.7-1.4
			C13.6,6.2,12.8,6,11.9,6C11,6,10.2,6.2,9.6,6.6C8.9,6.9,8.3,7.4,7.9,8c-0.5,0.6-0.8,1.2-1,2C6.6,10.7,6.5,11.5,6.5,12.2z"/>
		<path class="st1" d="M63.5,22.5c-1.6,0-2.8-0.5-3.6-1.5s-1.2-2.4-1.2-4.3V7h4.6v8.7c0,0.9,0.2,1.6,0.6,2.1s0.9,0.7,1.6,0.7
			c0.6,0,1.2-0.2,1.8-0.5c0.6-0.3,1.1-0.9,1.5-1.7V7h4.6v10c0,0.5,0.1,0.8,0.2,1s0.4,0.3,0.8,0.3v3.9c-0.4,0.1-0.8,0.2-1.1,0.2
			c-0.3,0-0.6,0-0.8,0c-1.7,0-2.6-0.6-2.8-1.9l-0.1-0.9c-0.7,1-1.6,1.7-2.6,2.2C65.9,22.3,64.8,22.5,63.5,22.5z"/>
		<path class="st1" d="M86.7,22.5c-1.2,0-2.2-0.2-3-0.7c-0.9-0.5-1.5-1.2-2-2v8.6h-4.6V7h4v2.5c0.6-0.9,1.3-1.5,2.1-2s1.8-0.7,3-0.7
			c1,0,2,0.2,2.8,0.6c0.9,0.4,1.6,1,2.2,1.7c0.6,0.7,1.1,1.5,1.5,2.5s0.5,2,0.5,3.1s-0.2,2.2-0.5,3.2s-0.8,1.8-1.4,2.5
			s-1.3,1.3-2.1,1.7C88.5,22.3,87.6,22.5,86.7,22.5z M85.1,18.6c0.5,0,1-0.1,1.4-0.3c0.4-0.2,0.8-0.5,1.1-0.9
			c0.3-0.4,0.5-0.8,0.7-1.3s0.2-1,0.2-1.6s-0.1-1.1-0.3-1.6s-0.4-0.9-0.8-1.2c-0.3-0.3-0.7-0.6-1.2-0.8s-0.9-0.3-1.5-0.3
			s-1.3,0.2-1.8,0.6s-1,0.9-1.3,1.5v3.1c0.3,0.8,0.8,1.4,1.4,1.9C83.7,18.3,84.4,18.6,85.1,18.6z"/>
		<path class="st1" d="M99.9,22.5c-0.8,0-1.5-0.1-2.1-0.4c-0.6-0.2-1.2-0.6-1.7-1s-0.8-0.9-1.1-1.5c-0.3-0.6-0.4-1.2-0.4-1.9
			c0-0.8,0.2-1.4,0.5-2.1c0.3-0.6,0.8-1.1,1.3-1.6c0.6-0.4,1.3-0.8,2.1-1c0.8-0.3,1.7-0.4,2.6-0.4c0.6,0,1.3,0.1,1.9,0.2
			c0.6,0.1,1.1,0.3,1.6,0.5v-0.7c0-1.8-1-2.6-3-2.6c-0.8,0-1.6,0.1-2.4,0.4s-1.5,0.7-2.4,1.3l-1.4-2.9c1-0.7,2-1.2,3.1-1.5
			s2.2-0.5,3.5-0.5c2.3,0,4.1,0.5,5.3,1.6c1.3,1.1,1.9,2.7,1.9,4.8V17c0,0.5,0.1,0.8,0.2,1s0.4,0.3,0.8,0.3v3.9
			c-0.4,0.1-0.8,0.2-1.1,0.2s-0.6,0-0.9,0c-0.9,0-1.5-0.2-2-0.5s-0.7-0.8-0.8-1.4l-0.1-0.7c-0.7,0.9-1.5,1.5-2.4,2
			S101,22.5,99.9,22.5z M101.3,19.2c0.5,0,1-0.1,1.5-0.3c0.5-0.2,0.9-0.4,1.2-0.7c0.4-0.3,0.7-0.7,0.7-1.1v-1.5
			c-0.4-0.2-0.8-0.3-1.3-0.4c-0.5-0.1-0.9-0.1-1.3-0.1c-0.9,0-1.6,0.2-2.1,0.6c-0.6,0.4-0.8,0.9-0.8,1.5s0.2,1,0.6,1.4
			C100.1,19,100.7,19.2,101.3,19.2z"/>
		<path class="st1" d="M49,6.7c-4.3,0-7.8,3.5-7.8,7.8c0,3.2,1.9,5.9,4.6,7.2l1.4-4.7c-0.8-0.6-1.3-1.5-1.3-2.5
			c0-1.7,1.4-3.1,3.1-3.1c1.7,0,3.1,1.4,3.1,3.1c0,1-0.5,1.9-1.3,2.5l1.4,4.7c2.7-1.2,4.6-4,4.6-7.2C56.8,10.2,53.3,6.7,49,6.7z"/>
		<path class="st1" d="M31.8,6.7c-4.3,0-7.8,3.5-7.8,7.8c0,3.2,1.9,5.9,4.6,7.2L30,17c-0.8-0.6-1.3-1.5-1.3-2.5
			c0-1.7,1.4-3.1,3.1-3.1c1.7,0,3.1,1.4,3.1,3.1c0,1-0.5,1.9-1.3,2.5l1.4,4.7c2.7-1.2,4.6-4,4.6-7.2C39.6,10.2,36.1,6.7,31.8,6.7z"
			/>
	</g>
</g>
</svg>
